<?xml version="1.0" encoding="UTF-8" standalone="no"?>
<!DOCTYPE svg PUBLIC "-//W3C//DTD SVG 1.0//EN" "http://www.w3.org/TR/2001/PR-SVG-20010719/DTD/svg10.dtd">
<svg width="12cm" height="7cm" viewBox="43 45 231 137" xmlns="http://www.w3.org/2000/svg" xmlns:xlink="http://www.w3.org/1999/xlink">
  <g id="Fondo">
    <polyline style="fill: none; stroke-opacity: 1; stroke-width: 2; stroke: #000000" points="106,79 124,79 126,69 130,89 134,69 138,89 142,69 146,89 148,79 166,79 "/>
    <text font-size="12.7998" style="fill: #000000; fill-opacity: 1; stroke: none;text-anchor:start;font-family:sans-serif;font-style:normal;font-weight:normal" x="43" y="83">
      <tspan x="43" y="83">PC3</tspan>
    </text>
    <g>
      <line style="fill: none; stroke-opacity: 1; stroke-width: 6; stroke: #000000" x1="231.13" y1="67" x2="231.13" y2="91"/>
      <polygon style="fill: #ffffff; fill-opacity: 1; stroke-opacity: 1; stroke-width: 2; stroke: #000000" fill-rule="evenodd" points="231.13,79 212.87,67 212.87,91 "/>
      <line style="fill: none; stroke-opacity: 1; stroke-width: 2; stroke: #000000" x1="192" y1="79" x2="252" y2="79"/>
      <line style="fill: none; stroke-opacity: 1; stroke-width: 2; stroke: #000000" x1="218.087" y1="67" x2="228.522" y2="61"/>
      <polygon style="fill: #000000; fill-opacity: 1; stroke-opacity: 1; stroke-width: 2; stroke: #000000" fill-rule="evenodd" points="225.183,61 228.522,61 228.522,61 228.522,63.4 "/>
      <line style="fill: none; stroke-opacity: 1; stroke-width: 2; stroke: #000000" x1="223.304" y1="69.4" x2="233.739" y2="63.4"/>
      <polygon style="fill: #000000; fill-opacity: 1; stroke-opacity: 1; stroke-width: 2; stroke: #000000" fill-rule="evenodd" points="230.4,63.4 233.739,63.4 233.739,65.8 "/>
    </g>
    <line style="fill: none; stroke-opacity: 1; stroke-width: 2; stroke: #000000" x1="72" y1="80" x2="106" y2="79"/>
    <line style="fill: none; stroke-opacity: 1; stroke-width: 2; stroke: #000000" x1="166" y1="79" x2="192" y2="79"/>
    <text font-size="12.7998" style="fill: #000000; fill-opacity: 1; stroke: none;text-anchor:start;font-family:sans-serif;font-style:normal;font-weight:normal" x="121" y="57">
      <tspan x="121" y="57">330Ω</tspan>
    </text>
    <g>
      <line style="fill: none; stroke-opacity: 1; stroke-width: 2; stroke: #000000" x1="253" y1="140" x2="253" y2="160"/>
      <line style="fill: none; stroke-opacity: 1; stroke-width: 2; stroke: #000000" x1="233" y1="160" x2="273" y2="160"/>
      <line style="fill: none; stroke-opacity: 1; stroke-width: 2; stroke: #000000" x1="239.7" y1="170" x2="266.3" y2="170"/>
      <line style="fill: none; stroke-opacity: 1; stroke-width: 2; stroke: #000000" x1="246.4" y1="180" x2="259.6" y2="180"/>
    </g>
    <line style="fill: none; stroke-opacity: 1; stroke-width: 2; stroke: #000000" x1="252" y1="79" x2="253" y2="140"/>
  </g>
</svg>
